<svg width="100" height="100" viewBox="0 0 100 100" fill="none" xmlns="http://www.w3.org/2000/svg">
<g clip-path="url(#clip0_1_67)">
<circle cx="49.5" cy="50.5" r="27.5" fill="#D9D9D9"/>
<rect x="46" width="7" height="17" rx="3.5" fill="#D9D9D9"/>
<rect x="46" y="83" width="7" height="17" rx="3.5" fill="#D9D9D9"/>
<rect x="83" y="54" width="7" height="17" rx="3.5" transform="rotate(-90 83 54)" fill="#D9D9D9"/>
<rect y="54" width="7" height="17" rx="3.5" transform="rotate(-90 0 54)" fill="#D9D9D9"/>
<rect x="72" y="77.9498" width="7" height="17" rx="3.5" transform="rotate(-45 72 77.9498)" fill="#D9D9D9"/>
<rect x="10" y="15.9498" width="7" height="17" rx="3.5" transform="rotate(-45 10 15.9498)" fill="#D9D9D9"/>
<rect x="84.0208" y="11" width="7" height="17" rx="3.5" transform="rotate(45 84.0208 11)" fill="#D9D9D9"/>
<rect x="22.0208" y="73" width="7" height="17" rx="3.5" transform="rotate(45 22.0208 73)" fill="#D9D9D9"/>
</g>
<defs>
<clipPath id="clip0_1_67">
<rect width="100" height="100" fill="white"/>
</clipPath>
</defs>
</svg>
